<svg xmlns="http://www.w3.org/2000/svg" width="1740" height="500" viewBox="0 0 1740 500"><path fill="#EF3C2C" d="M185.435 397.05c0 13.496-3.635 17.13-16.603 17.13h-1.05c-13.48 0-17.125-3.634-17.125-17.13V232.012c0-43.083-21.794-64.363-53.972-64.363-33.742 0-60.72 28.55-60.72 72.146v157.252c0 13.497-3.643 17.132-16.603 17.132h-1.05c-13.498 0-17.125-3.635-17.125-17.132V154.675c0-12.983 3.627-16.603 17.124-16.603h1.052c12.96 0 16.603 3.62 16.603 16.603v36.848c4.662-31.656 33.213-55.544 69.025-55.544 37.883 0 64.876 19.73 75.252 59.186 6.748-35.3 36.334-59.187 73.703-59.187 46.188 0 80.966 31.157 80.966 97.07v164c0 13.496-3.626 17.13-16.61 17.13h-1.034c-13.513 0-17.132-3.634-17.132-17.13V231.5c0-43.083-18.68-63.85-53.98-63.85-33.726 0-60.72 28.55-60.72 72.147V397.05zM470.845 500.867c-11.925 0-14.532-4.678-11.427-16.088l20.245-70.6h-9.854c-16.604 0-21.282-4.14-25.423-20.245l-60.222-238.74c-3.105-12.982 0-17.123 13.497-17.123h1.035c13.496 0 17.653 3.627 21.28 17.124L456.31 301.56c16.604 66.425 25.422 105.872 25.422 105.872s10.392-40.996 28.037-105.873l39.968-147.4c3.627-12.46 8.306-16.088 21.265-16.088h2.086c11.932 0 14.53 4.14 11.41 16.09l-90.306 330.617c-3.105 12.452-8.298 16.087-21.28 16.087h-2.07z"/><path fill="#FFF" d="M683.61 319.197c0 26.488 12.445 42.577 40.995 42.577 25.96 0 36.864-14.02 38.935-33.236 2.07-15.046 4.148-24.387 26.48-24.387h9.837c19.21 0 22.854 8.82 22.854 25.43-1.034 45.675-34.263 87.193-98.626 87.193-63.312 0-103.803-38.927-103.803-101.195v-78.895c0-62.293 39.457-101.732 103.306-101.732 64.348 0 98.09 41.51 99.125 87.2.515 17.125-3.128 26.457-22.322 26.457H790.02c-22.33 0-24.41-10.367-26.48-25.42-2.583-19.725-12.975-33.206-38.404-33.206-28.028 0-41.525 16.082-41.525 43.076v86.14zM946.72 387.188c0 20.245-6.75 26.993-26.994 26.993h-9.862c-20.245 0-26.993-6.747-26.993-26.992V78.894c0-20.23 6.75-26.978 26.994-26.978h9.862c20.245 0 26.993 6.75 26.993 26.978v308.294zM1076.962 318.69c0 26.995 12.976 43.084 40.49 43.084 27.516 0 40.476-16.09 40.476-43.083V165.06c0-20.247 6.748-26.995 26.993-26.995h9.863c20.245 0 26.993 6.75 26.993 26.994v149.997c0 62.807-40.49 101.717-104.323 101.717-63.328 0-103.803-38.91-103.803-101.717V165.06c0-20.247 6.732-26.995 26.978-26.995h9.878c20.23 0 26.456 6.75 26.456 26.994v153.63zM1283.492 78.9c0-20.244 6.228-26.993 26.994-26.993h9.846c20.245 0 26.488 6.75 26.488 26.994v104.84c4.678-20.247 26.978-48.78 66.947-48.78 46.7 0 78.357 32.69 78.357 92.375v98.105c0 58.634-33.205 91.854-78.357 91.854-43.083 0-63.85-31.135-66.947-48.267v18.175c0 20.23-6.748 26.978-26.994 26.978h-9.34c-20.767 0-26.994-6.748-26.994-26.978v-308.3zm63.328 233.565c0 30.613 16.09 49.294 42.56 49.294 24.388 0 39.433-16.61 39.433-45.154V235.64c0-29.064-15.045-44.63-39.432-44.63-27.514 0-42.56 20.244-42.56 50.344v71.11zM1700.74 227.343c-17.637 0-22.314-2.592-28.02-16.104-4.14-12.447-16.09-22.814-36.334-22.814-21.81 0-33.205 11.924-33.205 28.527 0 48.274 135.443 22.837 135.443 116.786 0 42.56-31.656 83.05-98.603 83.05-63.328 0-96.533-34.784-103.28-61.778-4.157-16.595 1.548-29.063 19.217-29.063h16.595c16.09 0 19.202 4.677 25.43 17.13 3.618 8.314 16.594 21.29 42.56 21.29 25.43 0 36.335-12.455 36.335-27.532 0-47.73-138.066-23.85-138.066-119.346 0-44.655 35.292-82.538 97.055-82.538 53.45 0 89.263 29.585 96.533 61.755 4.156 16.617-1.55 30.636-20.767 30.636h-10.89zM1685.68 4.092c0 2.134-.68 2.83-2.845 2.83h-8.187v42.11c0 2.298-.695 2.978-2.908 2.978h-.616c-2.292 0-2.97-.68-2.97-2.98V6.92h-8.125c-2.15 0-2.83-.694-2.83-2.828v-.387c0-2.142.68-2.837 2.83-2.837h22.805c2.165 0 2.845.695 2.845 2.837v.387zM1699.397 49.103c0 2.22-.68 2.916-2.923 2.916h-.364c-2.23 0-2.924-.696-2.924-2.917V4.243c0-2.6.774-3.368 3.366-3.368h4.837c2.67 0 3.507.68 4.14 3.288l5.8 23.81 4.52 20.435s4.063-17.915 4.6-20.506l5.737-23.738c.616-2.608 1.532-3.288 4.22-3.288h4.82c2.592 0 3.366.767 3.366 3.367v44.78c0 2.3-.616 2.996-2.924 2.996h-.38c-2.276 0-2.987-.696-2.987-2.996v-26.64c0-2.828.236-19.826.236-19.826l-4.663 20.672-6.195 25.484c-.695 2.608-1.55 3.303-4.235 3.303h-3.13c-2.67 0-3.508-.695-4.203-3.303l-6.354-25.942c-.616-2.908-4.678-20.214-4.678-20.214s.315 16.91.315 19.827v26.718z"/></svg>